<?xml version="1.0" encoding="UTF-8" standalone="no"?> <svg width="50" height="50" viewBox="0 0 24 24" fill="#fff" xmlns="http://www.w3.org/2000/svg">
<path fill-rule="evenodd" clip-rule="evenodd" d="M7.23607 5C6.8573 5 6.51103 5.214 6.34164 5.55279L2.61803 13H8.22515C9.13176 13 9.92112 13.3955 10.4612 14H13.5388C14.0789 13.3955 14.8682 13 15.7749 13H21.382L17.6584 5.55279C17.489 5.214 17.1427 5 16.7639 5H15C14.4477 5 14 4.55228 14 4C14 3.44772 14.4477 3 15 3H16.7639C17.9002 3 18.939 3.64201 19.4472 4.65836L24 13.7639V18C24 19.6569 22.6569 21 21 21H16.4415C15.1502 21 14.0038 20.1737 13.5955 18.9487L12.9288 16.9487C12.8232 16.6318 12.7735 16.3124 12.7732 16H11.2268C11.2265 16.3124 11.1768 16.6318 11.0712 16.9487L10.4045 18.9487C9.99619 20.1737 8.84977 21 7.55848 21H3C1.34315 21 0 19.6569 0 18V13.7639L4.55279 4.65836C5.06096 3.64201 6.09975 3 7.23607 3H9C9.55229 3 10 3.44772 10 4C10 4.55228 9.55229 5 9 5H7.23607ZM22 15H15.7749C15.3968 15 15.0815 15.2016 14.908 15.5011C14.7708 15.7381 14.7295 16.0261 14.8262 16.3162L15.4928 18.3162C15.6289 18.7246 16.0111 19 16.4415 19H21C21.5523 19 22 18.5523 22 18V15ZM2 15H8.22515C8.60317 15 8.91853 15.2016 9.09195 15.5011C9.22916 15.7381 9.27054 16.0261 9.17383 16.3162L8.50716 18.3162C8.37105 18.7246 7.98891 19 7.55848 19H3C2.44772 19 2 18.5523 2 18V15Z" fill="#fff"/>
</svg>
